<svg width="295" height="144" viewBox="0 0 295 144" fill="none" xmlns="http://www.w3.org/2000/svg">
<path d="M0.5 40.8465C0.5 28.5347 5.94379 18.4646 14.8571 11.4605C23.7796 4.44924 36.1958 0.5 50.1246 0.5H246.48C260.408 0.5 272.419 4.44862 280.937 11.4536C289.446 18.4513 294.5 28.5212 294.5 40.8465C294.5 43.1856 293.772 45.4718 292.65 47.7495C291.527 50.0302 290.026 52.2709 288.502 54.5273L288.367 54.7274C286.895 56.9065 285.411 59.1026 284.288 61.3181C283.129 63.6042 282.333 65.9493 282.333 68.3691C282.333 73.059 283.384 77.5445 284.42 81.5239C284.55 82.023 284.68 82.5131 284.806 82.994C285.702 86.384 286.475 89.3133 286.475 91.6903C286.475 103.212 281.555 111.554 273.405 117.038C265.23 122.538 253.77 125.181 240.69 125.181L55.9147 125.181C42.8354 125.181 31.1309 122.538 22.7127 117.034C14.319 111.546 9.16703 103.202 9.16703 91.6903C9.16703 90.36 9.47173 88.8199 9.94683 87.0903C10.3079 85.7759 10.7597 84.3774 11.2376 82.8983C11.3885 82.4315 11.5419 81.9567 11.6959 81.4739C12.9724 77.4716 14.272 72.9739 14.272 68.3691C14.272 65.9837 13.3643 63.6548 12.0533 61.38C10.7962 59.1986 9.14052 57.0216 7.49343 54.8559C7.42361 54.7641 7.35381 54.6723 7.28405 54.5805C5.55923 52.3116 3.86011 50.0522 2.58932 47.7567C1.31959 45.4632 0.5 43.1721 0.5 40.8465Z" fill="#F2F7FF" stroke="#0066FF"/>
<rect x="166.274" y="97.0884" width="100.814" height="45.5487" rx="22.7743" fill="white" stroke="#0066FF"/>
</svg>
