<svg width="226" height="108" viewBox="0 0 226 108" fill="none" xmlns="http://www.w3.org/2000/svg">
<path d="M0.5 35.1C0.5 24.5215 4.67042 15.884 11.476 9.88546C18.2875 3.88174 27.7649 0.5 38.4005 0.5H188.829C199.463 0.5 208.629 3.8807 215.13 9.87788C221.628 15.8712 225.5 24.5092 225.5 35.1C225.5 39.1352 223.258 42.9405 220.911 46.8387L220.774 47.067C218.508 50.8276 216.179 54.6946 216.179 58.7506C216.179 62.783 216.984 66.6395 217.778 70.0596C217.878 70.4886 217.977 70.9099 218.074 71.3231C218.76 74.2365 219.352 76.7508 219.352 78.7909C219.352 88.6919 215.582 95.8407 209.369 100.53C203.136 105.234 194.39 107.5 184.393 107.5L42.8363 107.5C32.8391 107.5 23.9062 105.234 17.4863 100.525C11.0871 95.8326 7.13983 88.6831 7.13983 78.7909C7.13983 77.65 7.37282 76.3285 7.73656 74.8432C8.013 73.7143 8.35893 72.5134 8.72499 71.2426C8.84058 70.8414 8.95818 70.4331 9.07623 70.018C10.0544 66.5781 11.0508 62.7105 11.0508 58.7506C11.0508 56.6967 10.3538 54.6906 9.34694 52.7308C8.38216 50.853 7.11167 48.9792 5.85038 47.119C5.79665 47.0398 5.74295 46.9606 5.68928 46.8814C4.36773 44.9314 3.06847 42.9934 2.09692 41.0249C1.12664 39.059 0.5 37.0948 0.5 35.1Z" fill="#F2F7FF" stroke="#0066FF"/>
</svg>
